<svg width="158" height="25" viewBox="0 0 158 25" fill="none" xmlns="http://www.w3.org/2000/svg">
<g clip-path="url(#clip0_157_6718)">
<path d="M16.2894 11.6736C18.9663 12.723 18.8061 14.9884 18.3781 16.4544C18.3039 16.7087 18.5327 16.9381 18.762 16.8054C20.9204 15.5561 23.0888 11.3816 21.0863 9.17779C18.8993 6.77094 15.6892 7.09724 11.281 4.86803C7.99925 3.20845 8.51766 1.71061 9.60304 0.704898C9.79335 0.528564 9.62352 0.147273 9.37598 0.222626C2.43901 2.33422 4.77328 6.92703 7.142 8.12408C9.65903 9.39609 13.1964 10.4612 16.2894 11.6736Z" fill="black"/>
<path d="M6.19135 13.3556C3.51442 12.3062 3.67456 10.0408 4.10257 8.57484C4.17682 8.32052 3.94802 8.09114 3.71867 8.22389C1.56026 9.47311 -0.608109 13.6477 1.39437 15.8514C3.58138 18.2583 6.79146 17.932 11.1997 20.1612C14.4814 21.8208 13.963 23.3186 12.8777 24.3243C12.6874 24.5007 12.8572 24.882 13.1047 24.8066C20.0417 22.695 17.7074 18.1022 15.3387 16.9052C12.8217 15.6331 9.28425 14.568 6.19135 13.3556Z" fill="black"/>
<path fill-rule="evenodd" clip-rule="evenodd" d="M58.6364 9.3403C59.7673 9.34031 60.7068 9.82748 61.1765 10.4538V9.5143H63.6123V17.6568C63.6123 20.4231 61.6985 21.9542 58.9843 21.9542C56.7747 21.9542 55.2437 21.0495 54.7217 19.2574L57.0183 18.5963C57.2619 19.501 57.9752 20.0578 59.0191 20.0578C60.2892 20.0578 61.1765 19.4314 61.1765 17.9178V17.2914C60.7068 17.9177 59.7847 18.4049 58.6364 18.4049C56.131 18.4049 54.6695 16.3693 54.6695 13.8639C54.6695 11.3759 56.131 9.3403 58.6364 9.3403ZM59.2105 11.3933C57.8882 11.3933 57.1401 12.3329 57.1401 13.8639C57.1401 15.395 57.8882 16.3345 59.2105 16.3345C60.3762 16.3345 61.1939 15.4994 61.1939 14.0031V13.7595C61.1939 12.2459 60.3762 11.3933 59.2105 11.3933Z" fill="black"/>
<path fill-rule="evenodd" clip-rule="evenodd" d="M35.454 9.3403C38.1682 9.34031 39.6296 11.3585 39.6296 13.9161V14.6295H33.3488C33.5228 16.0213 34.3579 16.8565 35.5584 16.8565C36.4979 16.8565 37.246 16.4041 37.5244 15.5168L39.5775 16.2475C38.9163 17.9177 37.3678 18.8573 35.541 18.8573C32.8442 18.8573 31 16.926 31 14.0901C31 11.3933 32.8616 9.3403 35.454 9.3403ZM35.4366 11.2889C34.4623 11.2889 33.7316 11.8631 33.4358 12.9766H37.2112C37.1938 12.0719 36.6197 11.2889 35.4366 11.2889Z" fill="black"/>
<path d="M45.2642 5.98242C47.4216 5.98242 49.1092 6.93934 49.9791 8.19203L48.2915 9.84486C47.5608 8.81836 46.5864 8.13981 45.1946 8.13981C43.9767 8.13981 43.1415 8.71396 43.1415 9.61868C43.1415 10.593 44.0463 10.7844 45.6817 11.1498C47.6651 11.5847 50.1009 12.0719 50.1009 14.8208C50.1009 17.3436 47.8913 18.8573 45.212 18.8573C43.1068 18.8573 40.9145 17.9004 39.9054 16.3867L41.6627 14.6816C42.5848 15.9865 43.9245 16.6999 45.299 16.6999C46.6038 16.6999 47.5608 16.1431 47.5608 15.0818C47.5607 13.9335 46.3777 13.7769 44.4986 13.3593C42.637 12.9244 40.6188 12.3328 40.6188 9.87965C40.6188 7.47867 42.6718 5.98242 45.2642 5.98242Z" fill="black"/>
<path d="M92.0157 15.0296C92.0157 16.0387 92.4681 16.6999 93.4772 16.6999C94.3297 16.6999 95.1648 16.0735 95.1649 14.8904V9.5143H97.6006V18.6659H95.1649V17.7264C94.6603 18.3179 93.86 18.8573 92.6943 18.8573C90.7978 18.8573 89.58 17.5524 89.58 15.5689V9.5143H92.0157V15.0296Z" fill="black"/>
<path fill-rule="evenodd" clip-rule="evenodd" d="M109.247 9.3403C111.961 9.34031 113.423 11.3585 113.423 13.9161V14.6295H107.142C107.316 16.0213 108.151 16.8565 109.352 16.8565C110.291 16.8565 111.039 16.4041 111.318 15.5168L113.371 16.2475C112.71 17.9177 111.161 18.8573 109.334 18.8573C106.638 18.8573 104.793 16.926 104.793 14.0901C104.793 11.3933 106.655 9.3403 109.247 9.3403ZM109.23 11.2889C108.256 11.2889 107.525 11.8631 107.229 12.9766H111.005C110.987 12.0719 110.413 11.2889 109.23 11.2889Z" fill="black"/>
<path d="M117.926 9.32291C119.562 9.32291 121.006 10.0015 121.719 10.9236L120.31 12.4546C119.701 11.6717 118.813 11.2368 117.857 11.2367C117.091 11.2367 116.604 11.5673 116.604 12.0719C116.604 12.6634 117.195 12.7504 118.326 12.9766C119.927 13.3072 121.823 13.6725 121.823 15.7603C121.823 17.6742 120.066 18.8573 117.857 18.8573C116.221 18.8573 114.464 18.2483 113.629 17.1174L115.142 15.5516C115.786 16.4041 116.9 16.9434 117.926 16.9434C118.726 16.9434 119.44 16.6651 119.44 16.0213C119.44 15.3254 118.761 15.2384 117.3 14.96C115.821 14.6642 114.185 14.2815 114.185 12.3154C114.185 10.5582 115.751 9.32291 117.926 9.32291Z" fill="black"/>
<path d="M130.191 9.3403C132.297 9.3403 133.688 10.5582 134.123 12.0371L132.053 13.0114C131.827 12.0719 131.218 11.3759 130.209 11.3759C128.921 11.3759 128.069 12.385 128.069 14.0901C128.069 15.8125 128.921 16.8042 130.209 16.8042C131.218 16.8042 131.827 16.1083 132.053 15.1688L134.158 16.1083C133.741 17.6046 132.314 18.8573 130.191 18.8573C127.529 18.8573 125.65 16.926 125.65 14.0901C125.65 11.2715 127.529 9.3403 130.191 9.3403Z" fill="black"/>
<path fill-rule="evenodd" clip-rule="evenodd" d="M138.932 9.3403C141.577 9.34031 143.421 11.2541 143.421 14.0901C143.421 16.9434 141.577 18.8573 138.932 18.8573C136.288 18.8573 134.443 16.9434 134.443 14.0901C134.443 11.2541 136.288 9.3403 138.932 9.3403ZM138.932 11.3585C137.662 11.3585 136.879 12.3676 136.879 14.0901C136.879 15.8299 137.662 16.8391 138.932 16.8391C140.202 16.8391 140.985 15.8299 140.985 14.0901C140.985 12.3676 140.202 11.3585 138.932 11.3585Z" fill="black"/>
<path fill-rule="evenodd" clip-rule="evenodd" d="M78.5372 9.3403C80.8512 9.34031 82.2431 10.4016 82.2431 12.5242V16.2649C82.2431 16.752 82.4519 16.9087 83.0086 16.8391V18.6659C81.4428 18.8921 80.5033 18.5789 80.1031 17.8134C79.5115 18.4571 78.5894 18.8225 77.3889 18.8225C75.5969 18.8225 74.2746 17.7438 74.2746 16.1257C74.2746 14.2989 75.7361 13.5333 77.5803 13.2028L79.8595 12.7678V12.6286C79.8595 11.8457 79.4594 11.3585 78.4503 11.3585C77.5455 11.3585 77.0758 11.7587 76.867 12.5764L74.553 12.1589C74.9706 10.593 76.3624 9.3403 78.5372 9.3403ZM78.0675 14.8382C77.2671 14.9948 76.6756 15.2558 76.6756 15.9865C76.6756 16.6129 77.1454 16.9782 77.8761 16.9782C78.9026 16.9782 79.8595 16.4389 79.8595 15.4124V14.4729L78.0675 14.8382Z" fill="black"/>
<path d="M86.6274 9.5143H88.489V11.5499H86.6274V15.7777C86.6274 16.5607 87.0623 16.6651 87.7931 16.6651C88.1236 16.6651 88.2976 16.6477 88.6108 16.6129V18.6311C88.1759 18.7181 87.6539 18.7703 87.0449 18.7703C85.2007 18.7703 84.2264 18.1613 84.2264 16.2823V11.5499H83.0085V9.5143H84.2264V6.90452H86.6274V9.5143Z" fill="black"/>
<path d="M53.5233 18.6659H51.0875V9.5143H53.5233V18.6659Z" fill="black"/>
<path d="M70.2166 9.3403C72.1304 9.34031 73.2961 10.6452 73.2961 12.6286V18.6659H70.8603V13.3245C70.8603 12.2981 70.4427 11.5673 69.3988 11.5673C68.5463 11.5673 67.7112 12.1763 67.7112 13.3768V18.6659H65.2754V9.5143H67.7112V10.4538C68.2157 9.86228 69.0509 9.3403 70.2166 9.3403Z" fill="black"/>
<path d="M104.147 9.46211C104.39 9.46211 104.564 9.47951 104.738 9.4969V11.8805C104.46 11.8457 104.251 11.8283 103.955 11.8283C102.685 11.8283 101.711 12.6112 101.711 14.0205V18.6659H99.2751V9.5143H101.711V10.8018C102.111 10.0015 103.016 9.46211 104.147 9.46211Z" fill="black"/>
<path d="M125.237 18.6659H122.384V15.8474H125.237V18.6659Z" fill="black"/>
<path d="M154.839 9.3403C156.718 9.34031 157.936 10.6452 157.936 12.6286V18.6659H155.5V13.3245C155.5 12.298 155.117 11.5673 154.125 11.5673C153.308 11.5673 152.49 12.1763 152.49 13.3768V18.6659H150.054V13.3245C150.054 12.2981 149.671 11.5673 148.662 11.5673C147.862 11.5673 147.044 12.1763 147.044 13.3768V18.6659H144.608V9.5143H147.044V10.4538C147.549 9.86228 148.349 9.3403 149.532 9.3403C150.646 9.3403 151.498 9.81006 152.003 10.593C152.559 10.0188 153.429 9.3403 154.839 9.3403Z" fill="black"/>
<path d="M53.5406 8.43561H51.0527V6.17378H53.5406V8.43561Z" fill="black"/>
</g>
<defs>
<clipPath id="clip0_157_6718">
<rect width="158" height="25" fill="white"/>
</clipPath>
</defs>
</svg>

